<svg viewBox="0 0 200 200" xmlns="http://www.w3.org/2000/svg">
  <path fill="black" d="M45.7,-76.3C58.9,-69.3,69.1,-55.6,76.3,-41.2C83.5,-26.8,87.6,-11.7,85.1,2.4C82.7,16.5,73.6,29.6,63.4,40.1C53.2,50.6,41.9,58.5,29.9,65.2C17.9,71.9,5.2,77.4,-6.5,75.9C-18.2,74.4,-28.9,65.9,-39.8,57.7C-50.7,49.5,-61.8,41.6,-69.6,31.1C-77.4,20.6,-81.9,7.5,-79.8,-4.6C-77.7,-16.7,-69,-27.8,-59.4,-37.6C-49.8,-47.4,-39.3,-55.9,-27.7,-64.1C-16.1,-72.3,-3.4,-80.1,10.2,-81.9C23.9,-83.7,32.5,-83.3,45.7,-76.3Z" transform="translate(100 100)" />
</svg>
